# MagicaVoxel @ Ephtracy

# group
o 

# material
mtllib MoneyCoin.mtl
usemtl palette

# normals
vn -1 0 0
vn 1 0 0
vn 0 0 1
vn 0 0 -1
vn 0 -1 0
vn 0 1 0

# texcoords
vt 0.0175781 0.5
vt 0.0214844 0.5
vt 0.0449219 0.5
vt 0.974609 0.5

# verts
v -0.3 0.1 0.1
v -0.3 0.1 0
v -0.3 0.6 0.1
v -0.3 0.6 0
v -0.2 0 0.1
v -0.2 0 0
v -0.2 0.1 0.2
v -0.2 0.1 0.1
v -0.2 0.1 0
v -0.2 0.1 -0.1
v -0.2 0.6 0.2
v -0.2 0.6 0.1
v -0.2 0.6 0
v -0.2 0.6 -0.1
v -0.2 0.7 0.1
v -0.2 0.7 0
v 0.1 0 0.1
v 0.1 0 0
v 0.1 0.1 0.2
v 0.1 0.1 0.1
v 0.1 0.1 0
v 0.1 0.1 -0.1
v 0.1 0.6 0.2
v 0.1 0.6 0.1
v 0.1 0.6 0
v 0.1 0.6 -0.1
v 0.1 0.7 0.1
v 0.1 0.7 0
v 0.2 0.1 0.1
v 0.2 0.1 0
v 0.2 0.6 0.1
v 0.2 0.6 0
v -0.2 0.1 0.2
v -0.2 0.6 0.2
v -0.1 0.2 0.2
v -0.1 0.5 0.2
v 0 0.2 0.2
v 0 0.5 0.2
v 0.1 0.1 0.2
v 0.1 0.6 0.2
v -0.3 0.1 0.1
v -0.3 0.6 0.1
v -0.2 0 0.1
v -0.2 0.1 0.1
v -0.2 0.6 0.1
v -0.2 0.7 0.1
v 0.1 0 0.1
v 0.1 0.1 0.1
v 0.1 0.6 0.1
v 0.1 0.7 0.1
v 0.2 0.1 0.1
v 0.2 0.6 0.1
v -0.3 0.1 0
v -0.3 0.6 0
v -0.2 0 0
v -0.2 0.1 0
v -0.2 0.6 0
v -0.2 0.7 0
v 0.1 0 0
v 0.1 0.1 0
v 0.1 0.6 0
v 0.1 0.7 0
v 0.2 0.1 0
v 0.2 0.6 0
v -0.2 0.1 -0.1
v -0.2 0.6 -0.1
v -0.1 0.2 -0.1
v -0.1 0.5 -0.1
v 0 0.2 -0.1
v 0 0.5 -0.1
v 0.1 0.1 -0.1
v 0.1 0.6 -0.1
v -0.2 0 0.1
v 0.1 0 0.1
v -0.2 0 0
v 0.1 0 0
v -0.2 0.1 0.2
v 0.1 0.1 0.2
v -0.3 0.1 0.1
v -0.2 0.1 0.1
v 0.1 0.1 0.1
v 0.2 0.1 0.1
v -0.3 0.1 0
v -0.2 0.1 0
v 0.1 0.1 0
v 0.2 0.1 0
v -0.2 0.1 -0.1
v 0.1 0.1 -0.1
v -0.2 0.6 0.2
v 0.1 0.6 0.2
v -0.3 0.6 0.1
v -0.2 0.6 0.1
v 0.1 0.6 0.1
v 0.2 0.6 0.1
v -0.3 0.6 0
v -0.2 0.6 0
v 0.1 0.6 0
v 0.2 0.6 0
v -0.2 0.6 -0.1
v 0.1 0.6 -0.1
v -0.2 0.7 0.1
v 0.1 0.7 0.1
v -0.2 0.7 0
v 0.1 0.7 0

# faces
f 3/3/1 2/3/1 1/3/1
f 4/3/1 2/3/1 3/3/1
f 8/3/1 6/3/1 5/3/1
f 9/3/1 6/3/1 8/3/1
f 11/1/1 8/1/1 7/1/1
f 12/1/1 8/1/1 11/1/1
f 13/1/1 10/1/1 9/1/1
f 14/1/1 10/1/1 13/1/1
f 15/3/1 13/3/1 12/3/1
f 16/3/1 13/3/1 15/3/1
f 17/3/2 18/3/2 20/3/2
f 20/3/2 18/3/2 21/3/2
f 19/1/2 20/1/2 23/1/2
f 23/1/2 20/1/2 24/1/2
f 21/1/2 22/1/2 25/1/2
f 25/1/2 22/1/2 26/1/2
f 24/3/2 25/3/2 27/3/2
f 27/3/2 25/3/2 28/3/2
f 29/3/2 30/3/2 31/3/2
f 31/3/2 30/3/2 32/3/2
f 35/1/3 34/1/3 33/1/3
f 36/1/3 34/1/3 35/1/3
f 37/1/3 35/1/3 33/1/3
f 37/2/3 36/2/3 35/2/3
f 38/1/3 34/1/3 36/1/3
f 38/2/3 36/2/3 37/2/3
f 39/1/3 37/1/3 33/1/3
f 39/1/3 38/1/3 37/1/3
f 40/1/3 34/1/3 38/1/3
f 40/1/3 38/1/3 39/1/3
f 44/3/3 42/3/3 41/3/3
f 45/3/3 42/3/3 44/3/3
f 47/3/3 44/3/3 43/3/3
f 48/3/3 44/3/3 47/3/3
f 49/3/3 46/3/3 45/3/3
f 50/3/3 46/3/3 49/3/3
f 51/3/3 49/3/3 48/3/3
f 52/3/3 49/3/3 51/3/3
f 53/3/4 54/3/4 56/3/4
f 56/3/4 54/3/4 57/3/4
f 55/3/4 56/3/4 59/3/4
f 59/3/4 56/3/4 60/3/4
f 57/3/4 58/3/4 61/3/4
f 61/3/4 58/3/4 62/3/4
f 60/3/4 61/3/4 63/3/4
f 63/3/4 61/3/4 64/3/4
f 65/1/4 66/1/4 67/1/4
f 67/1/4 66/1/4 68/1/4
f 65/1/4 67/1/4 69/1/4
f 67/2/4 68/2/4 69/2/4
f 68/1/4 66/1/4 70/1/4
f 69/2/4 68/2/4 70/2/4
f 65/1/4 69/1/4 71/1/4
f 69/1/4 70/1/4 71/1/4
f 70/1/4 66/1/4 72/1/4
f 71/1/4 70/1/4 72/1/4
f 75/3/5 74/3/5 73/3/5
f 76/3/5 74/3/5 75/3/5
f 80/1/5 78/1/5 77/1/5
f 81/1/5 78/1/5 80/1/5
f 83/3/5 80/3/5 79/3/5
f 84/3/5 80/3/5 83/3/5
f 85/3/5 82/3/5 81/3/5
f 86/3/5 82/3/5 85/3/5
f 87/1/5 85/1/5 84/1/5
f 88/1/5 85/1/5 87/1/5
f 89/1/6 90/1/6 92/1/6
f 92/1/6 90/1/6 93/1/6
f 91/3/6 92/3/6 95/3/6
f 95/3/6 92/3/6 96/3/6
f 93/3/6 94/3/6 97/3/6
f 97/3/6 94/3/6 98/3/6
f 96/1/6 97/1/6 99/1/6
f 99/1/6 97/1/6 100/1/6
f 101/3/6 102/3/6 103/3/6
f 103/3/6 102/3/6 104/3/6
